<?xml version="1.0" encoding="utf-8"?>
<!-- Generator: Adobe Illustrator 16.0.0, SVG Export Plug-In . SVG Version: 6.00 Build 0)  -->
<!DOCTYPE svg PUBLIC "-//W3C//DTD SVG 1.1//EN" "http://www.w3.org/Graphics/SVG/1.1/DTD/svg11.dtd">
<svg version="1.1" id="Layer_1" xmlns="http://www.w3.org/2000/svg" xmlns:xlink="http://www.w3.org/1999/xlink" x="0px" y="0px"
	 width="512px" height="512px" viewBox="0 0 512 512" enable-background="new 0 0 512 512" xml:space="preserve">
<path d="M486.406,186.141C500.469,175.578,512,181.359,512,198.953v288c0,17.594-11.531,23.375-25.594,12.813l-76.813-57.625
	C395.531,431.578,384,408.547,384,390.953v-96c0-17.594,11.531-40.625,25.594-51.188L486.406,186.141z M64,38.953
	c-35.344,0-64,28.656-64,64s28.656,64,64,64s64-28.656,64-64S99.344,38.953,64,38.953z M256,6.953c-44.188,0-80,35.813-80,80
	s35.813,80,80,80s80-35.813,80-80S300.188,6.953,256,6.953z M128,262.953h224v192c0,17.688-14.313,32-32,32H32
	c-17.688,0-32-14.313-32-32v-224c0-17.688,14.313-32,32-32h288c17.688,0,32,14.313,32,32H128V262.953z M128,390.953
	c0-17.688-14.313-32-32-32s-32,14.313-32,32s14.313,32,32,32S128,408.641,128,390.953z"/>
</svg>
