<?xml version="1.0" encoding="utf-8"?>
<!-- Generator: Adobe Illustrator 16.0.0, SVG Export Plug-In . SVG Version: 6.00 Build 0)  -->
<!DOCTYPE svg PUBLIC "-//W3C//DTD SVG 1.1//EN" "http://www.w3.org/Graphics/SVG/1.1/DTD/svg11.dtd">
<svg version="1.1" xmlns="http://www.w3.org/2000/svg" xmlns:xlink="http://www.w3.org/1999/xlink" x="0px" y="0px"
	 width="358.097px" height="200px" viewBox="0 0 358.097 200" enable-background="new 0 0 358.097 200" xml:space="preserve">
<g id="Layer_1">
	<g>
		<path fill="#FFA500" d="M220.989,0h-83.881c-6.299,0-11.406,5.108-11.406,11.405v68.231c0,6.301,5.107,11.406,11.406,11.406
			h83.881c6.299,0,11.406-5.105,11.406-11.406V11.405C232.395,5.108,227.288,0,220.989,0z M217.424,67.402
			c0,5.262-4.264,9.527-9.523,9.527h-57.705c-5.259,0-9.523-4.266-9.523-9.527V23.639c0-5.26,4.264-9.523,9.523-9.523h57.705
			c5.259,0,9.523,4.264,9.523,9.523V67.402z"/>
		<path fill="#FFA500" d="M220.989,108.957h-83.881c-6.299,0-11.406,5.109-11.406,11.406v68.23c0,6.301,5.107,11.406,11.406,11.406
			h83.881c6.299,0,11.406-5.105,11.406-11.406v-68.23C232.395,114.066,227.288,108.957,220.989,108.957z M217.424,176.359
			c0,5.262-4.264,9.527-9.523,9.527h-57.705c-5.259,0-9.523-4.266-9.523-9.527v-43.763c0-5.261,4.264-9.523,9.523-9.523h57.705
			c5.259,0,9.523,4.263,9.523,9.523V176.359z"/>
		<path fill="#FFA500" d="M346.691,108.957H262.81c-6.299,0-11.406,5.109-11.406,11.406v68.23c0,6.301,5.107,11.406,11.406,11.406
			h83.881c6.299,0,11.406-5.105,11.406-11.406v-68.23C358.097,114.066,352.99,108.957,346.691,108.957z M343.126,176.359
			c0,5.262-4.264,9.527-9.523,9.527h-57.705c-5.259,0-9.523-4.266-9.523-9.527v-43.763c0-5.261,4.264-9.523,9.523-9.523h57.705
			c5.259,0,9.523,4.263,9.523,9.523V176.359z"/>
		<path fill="#FFA500" d="M95.287,108.957H11.406C5.107,108.957,0,114.066,0,120.363v68.23C0,194.895,5.107,200,11.406,200h83.881
			c6.299,0,11.406-5.105,11.406-11.406v-68.23C106.692,114.066,101.585,108.957,95.287,108.957z M91.722,176.359
			c0,5.262-4.264,9.527-9.523,9.527H24.494c-5.259,0-9.523-4.266-9.523-9.527v-43.763c0-5.261,4.264-9.523,9.523-9.523h57.705
			c5.259,0,9.523,4.263,9.523,9.523V176.359z"/>
		<path fill="#FFA500" d="M316.08,149.441c-0.003-0.008-0.007-0.008-0.009-0.011l-12.566-12.567c-2.785-2.785-7.301-2.781-10.084,0
			c-2.785,2.791-2.781,7.299,0.002,10.084l7.533,7.533l-7.533,7.533c-2.787,2.784-2.783,7.299,0,10.084
			c2.786,2.785,7.297,2.777,10.08-0.004l12.564-12.561c0.002-0.004,0.005-0.008,0.009-0.008c0.349-0.349,0.653-0.727,0.915-1.121
			C318.818,155.639,318.516,151.877,316.08,149.441z"/>
		<path fill="#FFA500" d="M184.102,34.206c-0.004-0.004-0.006-0.007-0.009-0.011c-0.349-0.35-0.724-0.654-1.12-0.914
			c-2.766-1.83-6.529-1.525-8.964,0.91c-0.004,0.004-0.006,0.008-0.009,0.011l-12.566,12.564c-2.786,2.784-2.783,7.3,0,10.084
			c2.789,2.784,7.3,2.781,10.083,0l7.533-7.537l7.532,7.537c2.784,2.784,7.301,2.781,10.084,0c2.785-2.788,2.781-7.3-0.002-10.084
			L184.102,34.206z"/>
		<path fill="#FFA500" d="M186.58,144.949l-7.534,7.533l-7.531-7.533c-2.785-2.785-7.301-2.785-10.084,0
			c-2.784,2.785-2.781,7.299,0.002,10.08l12.562,12.564c0.002,0.004,0.004,0.004,0.007,0.012c0.349,0.349,0.724,0.652,1.12,0.913
			c2.768,1.827,6.529,1.522,8.965-0.913c0.003,0,0.005-0.008,0.007-0.008l12.568-12.564c2.787-2.785,2.783-7.303,0-10.084
			C193.874,142.164,189.363,142.164,186.58,144.949z"/>
		<path fill="#FFA500" d="M57.141,154.477l7.533-7.529c2.787-2.785,2.783-7.3,0-10.084c-2.786-2.785-7.297-2.781-10.08,0
			l-12.564,12.563c-0.002,0-0.005,0.004-0.009,0.007c-0.349,0.35-0.653,0.725-0.915,1.122c-1.827,2.767-1.524,6.527,0.912,8.963
			c0.003,0.003,0.007,0.007,0.009,0.007l12.566,12.568c2.785,2.789,7.301,2.781,10.084,0c2.785-2.788,2.781-7.299-0.002-10.08
			L57.141,154.477z"/>
	</g>
</g>
<g id="Layer_2">
</g>
</svg>
